<svg width="127" height="35" viewBox="0 0 127 35" fill="none" xmlns="http://www.w3.org/2000/svg">
<path d="M3.19621 22.4194H17.1067C16.6426 18.4115 14.4174 15.7704 10.4767 15.7704C6.81298 15.7704 3.7522 18.0926 3.19621 22.4194ZM20.3532 24.8361H3.14929C3.52016 29.5274 6.9981 31.9866 10.8469 31.9866C12.2317 32.0339 13.6064 31.7338 14.8455 31.1137C16.0846 30.4936 17.1488 29.5732 17.941 28.4364L20.2125 30.3047C18.2662 32.8082 15.762 34.8128 10.8469 34.8128C4.26254 34.8084 -0.00341797 29.9344 -0.00341797 23.9232C-0.00341797 17.9119 4.17061 13.0374 10.4767 13.0374C17.0135 13.0374 20.3532 17.8656 20.3532 23.2404V24.8361Z" fill="#0F1259"/>
<path d="M39.8267 34.8083C37.6538 34.8289 35.4981 34.421 33.483 33.6079C31.4678 32.7949 29.6327 31.5926 28.0825 30.0698C26.5323 28.547 25.2974 26.7337 24.4485 24.7333C23.5996 22.733 23.1532 20.585 23.135 18.4121C23.1792 14.0258 24.9613 9.83604 28.0905 6.76192C31.2196 3.6878 35.4403 1.98029 39.8267 2.01392C44.2281 2.0005 48.4583 3.71857 51.6039 6.79719L49.3324 9.07376C46.8117 6.53762 43.4019 5.08375 39.8267 5.02082C38.0605 5.00866 36.3094 5.34604 34.6741 6.01352C33.0388 6.681 31.5518 7.66539 30.2986 8.91C29.0454 10.1546 28.0508 11.6349 27.3721 13.2655C26.6934 14.8961 26.3439 16.6449 26.3439 18.4111C26.3439 20.1774 26.6934 21.9261 27.3721 23.5568C28.0508 25.1874 29.0454 26.6676 30.2986 27.9122C31.5518 29.1569 33.0388 30.1413 34.6741 30.8087C36.3094 31.4762 38.0605 31.8136 39.8267 31.8014C41.6204 31.7749 43.3913 31.3953 45.0382 30.6843C46.6852 29.9734 48.176 28.945 49.4256 27.6578L51.6971 29.9344C48.5418 33.0672 44.2731 34.8201 39.8267 34.8083Z" fill="#0F1259"/>
<path d="M61.1596 0.191895H57.9131V34.3519H61.1596V0.191895Z" fill="#0F1259"/>
<path d="M70.2027 22.4195H84.11C83.6459 18.4115 81.4239 15.7704 77.48 15.7704C73.8163 15.7704 70.7555 18.0927 70.2027 22.4195ZM87.3566 24.8361H70.1526C70.5235 29.5275 74.0014 31.9867 77.8502 31.9867C79.235 32.034 80.6097 31.7339 81.8488 31.1138C83.0879 30.4937 84.1521 29.5733 84.9443 28.4364L87.2158 30.3047C85.2695 32.8083 82.7654 34.8129 77.8502 34.8129C71.2659 34.8129 66.9993 29.9389 66.9993 23.9283C66.9993 17.9177 71.1733 13.0425 77.4794 13.0425C84.0175 13.0425 87.3559 17.8708 87.3559 23.2455L87.3566 24.8361Z" fill="#0F1259"/>
<path d="M96.2592 34.3524H93.1997V13.5837H96.2592V14.9493C96.2669 15.2689 96.2512 15.5886 96.2123 15.9059C96.8627 14.9967 97.7284 14.2629 98.7318 13.7701C99.7353 13.2773 100.845 13.041 101.962 13.0822V15.9059C98.532 16.1329 96.3524 18.8672 96.2567 22.4643L96.2592 34.3524Z" fill="#0F1259"/>
<path d="M105.416 34.4032L113.921 23.6613L115.886 21.1825L122.008 13.4709H125.886L117.8 23.6613L115.885 26.0945L109.295 34.4032H105.416Z" fill="#0F1259"/>
<path d="M113.922 23.6613L105.884 13.4709H109.763L115.886 21.1844L113.922 23.6613Z" fill="#0F1259"/>
<path d="M117.8 23.6614L126.353 34.4039H122.474L115.884 26.0945L117.8 23.6614Z" fill="#0F1259"/>
<path d="M113.885 23.7437L115.85 21.2585L117.772 23.7437L115.85 26.1832L113.885 23.7437Z" fill="#0F1259"/>
</svg>
